#!OML:ASF H:\Terrain\Patient Classification 1\Terrain2\Thursday\justin.ASF
:FULLY-SPECIFIED
:DEGREES
3297
root 9.26701 17.6443 10.0573 1991.8 250.381 528.77
lowerback 4.65722 1.37743 1.31706
upperback 1.80392 1.87979 2.23401
thorax -0.789287 0.921413 1.45518
lowerneck -11.9123 -4.33183 -11.1759
upperneck 39.4501 -7.82385 7.19791
head 17.1587 -4.43276 3.7191
rclavicle 1.42876e-014 2.78299e-015
rhumerus -29.4155 -4.45193 -83.6579
rradius 35.8401
rwrist -15.521
rhand -21.7946 9.73517
rfingers 7.12502
rthumb 4.60713 -20.1947
lclavicle 1.42876e-014 2.78299e-015
lhumerus -36.7637 2.38033 83.4862
lradius 30.6216
lwrist 1.11303
lhand -21.701 23.8072
lfingers 7.12502
lthumb 4.6975 53.7352
rfemur -8.70799 -10.5837 25.6733
rtibia 33.2684
rfoot -22.2499 -1.1843
rtoes 20.528
lfemur -10.0691 11.7286 -16.8566
ltibia 38.7674
lfoot -16.4674 10.898
ltoes -25.7159
3298
root 9.26291 17.6253 10.0421 1992.08 251.216 528.562
lowerback 4.59849 1.44378 1.14962
upperback 1.77804 1.96075 2.25822
thorax -0.790951 0.96159 1.57063
lowerneck -11.8837 -4.20707 -11.305
upperneck 39.456 -7.59211 7.16632
head 17.1257 -4.36614 3.7707
rclavicle 4.95719e-014 1.98785e-014
rhumerus -29.4225 -4.42445 -83.6543
rradius 35.5995
rwrist -15.5148
rhand -22.1238 9.93884
rfingers 7.12502
rthumb 4.28922 -19.9977
lclavicle 4.95719e-014 1.98785e-014
lhumerus -36.6934 2.19566 83.7089
lradius 30.6852
lwrist 2.07112
lhand -22.4791 23.6601
lfingers 7.12502
lthumb 3.94614 53.6033
rfemur -9.02954 -11.3478 25.9921
rtibia 33.0448
rfoot -21.3062 -4.43288
rtoes -1.09482
lfemur -10.187 11.8729 -16.9407
ltibia 38.926
lfoot -16.1278 11.4857
ltoes -28.0057
3299
root 9.24979 17.6683 10.027 1992.15 252.107 528.506
lowerback 4.63271 1.48805 0.926448
upperback 1.74356 2.01247 2.25318
thorax -0.854024 0.987256 1.68622
lowerneck -11.9437 -4.06791 -11.4681
upperneck 39.5652 -7.35616 7.18645
head 17.1774 -4.29967 3.85507
rclavicle 4.28878e-014 3.18055e-015
rhumerus -29.4644 -4.08891 -83.7621
rradius 35.4282
rwrist -15.6553
rhand -22.0712 10.1751
rfingers 7.12502
rthumb 4.33999 -19.7605
lclavicle 4.28878e-014 3.18055e-015
lhumerus -36.7089 2.57713 83.6402
lradius 30.6995
lwrist 2.23648
lhand -22.4424 23.6077
lfingers 7.12502
lthumb 3.98156 53.5502
rfemur -8.70364 -9.37557 25.7123
rtibia 32.9695
rfoot -22.0065 -2.42378
rtoes 12.257
lfemur -10.0124 12.1485 -17.0714
ltibia 38.9385
lfoot -15.9839 11.7262
ltoes -25.6651
3300
root 9.23918 17.679 10.0104 1992.47 252.985 528.098
lowerback 4.70617 1.49936 0.703893
upperback 1.75747 2.01882 2.29679
thorax -0.890156 0.989566 1.85365
lowerneck -12.0236 -3.87566 -11.3789
upperneck 39.6124 -7.04319 7.06952
head 17.164 -4.17761 3.84214
rclavicle 3.01904e-014 1.27222e-014
rhumerus -29.385 -3.63948 -83.9574
rradius 35.1642
rwrist -15.7812
rhand -22.154 9.98894
rfingers 7.12502
rthumb 4.26003 -19.9482
lclavicle 3.01904e-014 1.27222e-014
lhumerus -36.8668 3.1725 83.436
lradius 30.9104
lwrist 1.98609
lhand -22.0732 23.7759
lfingers 7.12502
lthumb 4.33813 53.7115
rfemur -8.54839 -8.30854 25.6714
rtibia 32.9368
rfoot -22.3974 -1.65364
rtoes 17.615
lfemur -9.83834 12.5148 -17.0088
ltibia 39.051
lfoot -16.3958 11.1049
ltoes -16.5993
3301
root 9.23449 17.6907 9.99548 1994.07 253.521 526.495
lowerback 4.63125 1.42131 0.977609
upperback 1.75975 1.92383 2.44477
thorax -0.83932 0.941033 1.8596
lowerneck -12.0574 -3.6919 -11.3463
upperneck 39.5539 -6.71599 6.95794
head 17.0824 -4.05302 3.84151
rclavicle 3.65515e-014 2.00773e-014
rhumerus -29.2484 -3.33836 -84.0676
rradius 34.8345
rwrist -15.7189
rhand -22.5803 9.78208
rfingers 7.12502
rthumb 3.8484 -20.1629
lclavicle 3.65515e-014 2.00773e-014
lhumerus -37.0008 3.47119 83.3611
lradius 31.2073
lwrist 2.16211
lhand -21.7166 23.6916
lfingers 7.12502
lthumb 4.68239 53.6198
rfemur -8.49728 -7.56968 26.0566
rtibia 32.9543
rfoot -22.4562 -0.97151
rtoes 20.2953
lfemur -9.96661 12.402 -16.5097
ltibia 39.155
lfoot -16.5319 10.6401
ltoes -10.4182
